<mxfile host="app.diagrams.net" agent="Mozilla/5.0 (Windows NT 10.0; Win64; x64) AppleWebKit/537.36 (KHTML, like Gecko) Chrome/129.0.0.0 Safari/537.36 Edg/129.0.0.0" version="24.7.17">
  <diagram id="C5RBs43oDa-KdzZeNtuy" name="Page-1">
    <mxGraphModel dx="1901" dy="2370" grid="1" gridSize="10" guides="1" tooltips="1" connect="1" arrows="1" fold="1" page="1" pageScale="1" pageWidth="827" pageHeight="1169" math="0" shadow="0">
      <root>
        <mxCell id="WIyWlLk6GJQsqaUBKTNV-0" />
        <mxCell id="WIyWlLk6GJQsqaUBKTNV-1" parent="WIyWlLk6GJQsqaUBKTNV-0" />
        <mxCell id="VzRjQSMVrOHmQdl7SLVF-17" style="edgeStyle=orthogonalEdgeStyle;rounded=0;orthogonalLoop=1;jettySize=auto;html=1;exitX=1;exitY=0.5;exitDx=0;exitDy=0;entryX=0;entryY=0.5;entryDx=0;entryDy=0;curved=1;" parent="WIyWlLk6GJQsqaUBKTNV-1" source="WIyWlLk6GJQsqaUBKTNV-3" target="VzRjQSMVrOHmQdl7SLVF-6" edge="1">
          <mxGeometry relative="1" as="geometry" />
        </mxCell>
        <mxCell id="WIyWlLk6GJQsqaUBKTNV-3" value="255&lt;div&gt;上游仓库&lt;/div&gt;" style="rounded=1;whiteSpace=wrap;html=1;fontSize=12;glass=0;strokeWidth=1;shadow=0;" parent="WIyWlLk6GJQsqaUBKTNV-1" vertex="1">
          <mxGeometry x="10" y="100" width="120" height="40" as="geometry" />
        </mxCell>
        <mxCell id="VzRjQSMVrOHmQdl7SLVF-16" style="edgeStyle=orthogonalEdgeStyle;rounded=0;orthogonalLoop=1;jettySize=auto;html=1;exitX=1;exitY=0.5;exitDx=0;exitDy=0;entryX=0;entryY=0.5;entryDx=0;entryDy=0;curved=1;" parent="WIyWlLk6GJQsqaUBKTNV-1" source="VzRjQSMVrOHmQdl7SLVF-4" target="VzRjQSMVrOHmQdl7SLVF-6" edge="1">
          <mxGeometry relative="1" as="geometry" />
        </mxCell>
        <mxCell id="VzRjQSMVrOHmQdl7SLVF-4" value="190&lt;div&gt;清关行&lt;/div&gt;" style="rounded=1;whiteSpace=wrap;html=1;fontSize=12;glass=0;strokeWidth=1;shadow=0;" parent="WIyWlLk6GJQsqaUBKTNV-1" vertex="1">
          <mxGeometry x="10" y="40" width="120" height="40" as="geometry" />
        </mxCell>
        <mxCell id="VzRjQSMVrOHmQdl7SLVF-19" style="edgeStyle=orthogonalEdgeStyle;rounded=0;orthogonalLoop=1;jettySize=auto;html=1;exitX=1;exitY=0.5;exitDx=0;exitDy=0;entryX=0;entryY=0.5;entryDx=0;entryDy=0;" parent="WIyWlLk6GJQsqaUBKTNV-1" source="VzRjQSMVrOHmQdl7SLVF-5" edge="1">
          <mxGeometry relative="1" as="geometry">
            <mxPoint x="610" y="90" as="targetPoint" />
          </mxGeometry>
        </mxCell>
        <mxCell id="VzRjQSMVrOHmQdl7SLVF-5" value="200&lt;div&gt;司机已扫&lt;/div&gt;" style="rounded=1;whiteSpace=wrap;html=1;fontSize=12;glass=0;strokeWidth=1;shadow=0;" parent="WIyWlLk6GJQsqaUBKTNV-1" vertex="1">
          <mxGeometry x="420" y="70" width="120" height="40" as="geometry" />
        </mxCell>
        <mxCell id="VzRjQSMVrOHmQdl7SLVF-18" style="edgeStyle=orthogonalEdgeStyle;rounded=0;orthogonalLoop=1;jettySize=auto;html=1;exitX=1;exitY=0.5;exitDx=0;exitDy=0;entryX=0;entryY=0.5;entryDx=0;entryDy=0;" parent="WIyWlLk6GJQsqaUBKTNV-1" source="VzRjQSMVrOHmQdl7SLVF-6" target="VzRjQSMVrOHmQdl7SLVF-5" edge="1">
          <mxGeometry relative="1" as="geometry" />
        </mxCell>
        <mxCell id="VzRjQSMVrOHmQdl7SLVF-31" style="edgeStyle=orthogonalEdgeStyle;rounded=0;orthogonalLoop=1;jettySize=auto;html=1;exitX=1;exitY=0.5;exitDx=0;exitDy=0;curved=1;" parent="WIyWlLk6GJQsqaUBKTNV-1" source="VzRjQSMVrOHmQdl7SLVF-6" target="VzRjQSMVrOHmQdl7SLVF-28" edge="1">
          <mxGeometry relative="1" as="geometry" />
        </mxCell>
        <mxCell id="VzRjQSMVrOHmQdl7SLVF-6" value="199&lt;div&gt;A-scan&lt;/div&gt;" style="rounded=1;whiteSpace=wrap;html=1;fontSize=12;glass=0;strokeWidth=1;shadow=0;" parent="WIyWlLk6GJQsqaUBKTNV-1" vertex="1">
          <mxGeometry x="240" y="70" width="120" height="40" as="geometry" />
        </mxCell>
        <mxCell id="5N6ZWTq1YRqtfyxgJyt1-0" style="edgeStyle=orthogonalEdgeStyle;rounded=0;orthogonalLoop=1;jettySize=auto;html=1;exitX=1;exitY=0.5;exitDx=0;exitDy=0;entryX=0.5;entryY=1;entryDx=0;entryDy=0;curved=1;" edge="1" parent="WIyWlLk6GJQsqaUBKTNV-1" source="VzRjQSMVrOHmQdl7SLVF-8" target="VzRjQSMVrOHmQdl7SLVF-10">
          <mxGeometry relative="1" as="geometry">
            <Array as="points">
              <mxPoint x="1040" y="220" />
              <mxPoint x="1040" y="420" />
              <mxPoint x="670" y="420" />
            </Array>
          </mxGeometry>
        </mxCell>
        <mxCell id="VzRjQSMVrOHmQdl7SLVF-8" value="&lt;div&gt;218&lt;/div&gt;&lt;div&gt;状态断更&lt;/div&gt;" style="rounded=1;whiteSpace=wrap;html=1;fontSize=12;glass=0;strokeWidth=1;shadow=0;" parent="WIyWlLk6GJQsqaUBKTNV-1" vertex="1">
          <mxGeometry x="840" y="200" width="120" height="40" as="geometry" />
        </mxCell>
        <mxCell id="VzRjQSMVrOHmQdl7SLVF-21" style="edgeStyle=orthogonalEdgeStyle;rounded=0;orthogonalLoop=1;jettySize=auto;html=1;exitX=1;exitY=0.5;exitDx=0;exitDy=0;entryX=0;entryY=0.5;entryDx=0;entryDy=0;curved=1;" parent="WIyWlLk6GJQsqaUBKTNV-1" source="VzRjQSMVrOHmQdl7SLVF-10" target="VzRjQSMVrOHmQdl7SLVF-11" edge="1">
          <mxGeometry relative="1" as="geometry" />
        </mxCell>
        <mxCell id="VzRjQSMVrOHmQdl7SLVF-22" style="edgeStyle=orthogonalEdgeStyle;rounded=0;orthogonalLoop=1;jettySize=auto;html=1;exitX=1;exitY=0.5;exitDx=0;exitDy=0;entryX=0;entryY=0.5;entryDx=0;entryDy=0;curved=1;" parent="WIyWlLk6GJQsqaUBKTNV-1" source="VzRjQSMVrOHmQdl7SLVF-10" target="VzRjQSMVrOHmQdl7SLVF-12" edge="1">
          <mxGeometry relative="1" as="geometry" />
        </mxCell>
        <mxCell id="VzRjQSMVrOHmQdl7SLVF-23" style="edgeStyle=orthogonalEdgeStyle;rounded=0;orthogonalLoop=1;jettySize=auto;html=1;exitX=1;exitY=0.5;exitDx=0;exitDy=0;entryX=0;entryY=0.5;entryDx=0;entryDy=0;curved=1;" parent="WIyWlLk6GJQsqaUBKTNV-1" source="VzRjQSMVrOHmQdl7SLVF-10" target="VzRjQSMVrOHmQdl7SLVF-8" edge="1">
          <mxGeometry relative="1" as="geometry" />
        </mxCell>
        <mxCell id="VzRjQSMVrOHmQdl7SLVF-24" style="edgeStyle=orthogonalEdgeStyle;rounded=0;orthogonalLoop=1;jettySize=auto;html=1;exitX=1;exitY=0.5;exitDx=0;exitDy=0;entryX=0;entryY=0.5;entryDx=0;entryDy=0;curved=1;" parent="WIyWlLk6GJQsqaUBKTNV-1" source="VzRjQSMVrOHmQdl7SLVF-10" target="VzRjQSMVrOHmQdl7SLVF-13" edge="1">
          <mxGeometry relative="1" as="geometry" />
        </mxCell>
        <mxCell id="VzRjQSMVrOHmQdl7SLVF-10" value="&lt;div&gt;202&lt;/div&gt;&lt;div&gt;审核，司机发货&lt;/div&gt;" style="rounded=1;whiteSpace=wrap;html=1;fontSize=12;glass=0;strokeWidth=1;shadow=0;" parent="WIyWlLk6GJQsqaUBKTNV-1" vertex="1">
          <mxGeometry x="610" y="70" width="120" height="40" as="geometry" />
        </mxCell>
        <mxCell id="VzRjQSMVrOHmQdl7SLVF-39" style="edgeStyle=orthogonalEdgeStyle;rounded=0;orthogonalLoop=1;jettySize=auto;html=1;exitX=1;exitY=0.5;exitDx=0;exitDy=0;" parent="WIyWlLk6GJQsqaUBKTNV-1" source="VzRjQSMVrOHmQdl7SLVF-11" edge="1">
          <mxGeometry relative="1" as="geometry">
            <mxPoint x="1260" y="30" as="targetPoint" />
          </mxGeometry>
        </mxCell>
        <mxCell id="VzRjQSMVrOHmQdl7SLVF-11" value="&lt;div&gt;211&lt;/div&gt;&lt;div&gt;不可配送&lt;/div&gt;" style="rounded=1;whiteSpace=wrap;html=1;fontSize=12;glass=0;strokeWidth=1;shadow=0;" parent="WIyWlLk6GJQsqaUBKTNV-1" vertex="1">
          <mxGeometry x="840" y="10" width="120" height="40" as="geometry" />
        </mxCell>
        <mxCell id="VzRjQSMVrOHmQdl7SLVF-27" style="edgeStyle=orthogonalEdgeStyle;rounded=0;orthogonalLoop=1;jettySize=auto;html=1;exitX=1;exitY=0.5;exitDx=0;exitDy=0;" parent="WIyWlLk6GJQsqaUBKTNV-1" source="VzRjQSMVrOHmQdl7SLVF-12" edge="1">
          <mxGeometry relative="1" as="geometry">
            <mxPoint x="1020" y="110" as="targetPoint" />
          </mxGeometry>
        </mxCell>
        <mxCell id="VzRjQSMVrOHmQdl7SLVF-12" value="&lt;div&gt;231&lt;/div&gt;&lt;div&gt;配送失败1st&lt;/div&gt;" style="rounded=1;whiteSpace=wrap;html=1;fontSize=12;glass=0;strokeWidth=1;shadow=0;" parent="WIyWlLk6GJQsqaUBKTNV-1" vertex="1">
          <mxGeometry x="840" y="90" width="120" height="40" as="geometry" />
        </mxCell>
        <mxCell id="VzRjQSMVrOHmQdl7SLVF-13" value="&lt;div&gt;203&lt;/div&gt;&lt;div&gt;送达&lt;/div&gt;" style="rounded=1;whiteSpace=wrap;html=1;fontSize=12;glass=0;strokeWidth=1;shadow=0;" parent="WIyWlLk6GJQsqaUBKTNV-1" vertex="1">
          <mxGeometry x="840" y="330" width="120" height="40" as="geometry" />
        </mxCell>
        <mxCell id="5N6ZWTq1YRqtfyxgJyt1-3" style="edgeStyle=orthogonalEdgeStyle;rounded=0;orthogonalLoop=1;jettySize=auto;html=1;exitX=0.5;exitY=0;exitDx=0;exitDy=0;entryX=0.5;entryY=0;entryDx=0;entryDy=0;curved=1;" edge="1" parent="WIyWlLk6GJQsqaUBKTNV-1" source="VzRjQSMVrOHmQdl7SLVF-25" target="VzRjQSMVrOHmQdl7SLVF-10">
          <mxGeometry relative="1" as="geometry">
            <Array as="points">
              <mxPoint x="1320" y="-80" />
              <mxPoint x="670" y="-80" />
            </Array>
          </mxGeometry>
        </mxCell>
        <mxCell id="VzRjQSMVrOHmQdl7SLVF-25" value="&lt;div&gt;入库&lt;/div&gt;" style="rounded=1;whiteSpace=wrap;html=1;fontSize=12;glass=0;strokeWidth=1;shadow=0;" parent="WIyWlLk6GJQsqaUBKTNV-1" vertex="1">
          <mxGeometry x="1260" y="10" width="120" height="40" as="geometry" />
        </mxCell>
        <mxCell id="VzRjQSMVrOHmQdl7SLVF-38" style="edgeStyle=orthogonalEdgeStyle;rounded=0;orthogonalLoop=1;jettySize=auto;html=1;exitX=1;exitY=0.5;exitDx=0;exitDy=0;entryX=0;entryY=0.5;entryDx=0;entryDy=0;curved=1;" parent="WIyWlLk6GJQsqaUBKTNV-1" source="VzRjQSMVrOHmQdl7SLVF-26" target="VzRjQSMVrOHmQdl7SLVF-25" edge="1">
          <mxGeometry relative="1" as="geometry" />
        </mxCell>
        <mxCell id="VzRjQSMVrOHmQdl7SLVF-26" value="&lt;div&gt;232&lt;/div&gt;&lt;div&gt;配送失败2nd&lt;/div&gt;" style="rounded=1;whiteSpace=wrap;html=1;fontSize=12;glass=0;strokeWidth=1;shadow=0;" parent="WIyWlLk6GJQsqaUBKTNV-1" vertex="1">
          <mxGeometry x="1021" y="90" width="120" height="40" as="geometry" />
        </mxCell>
        <mxCell id="VzRjQSMVrOHmQdl7SLVF-36" style="edgeStyle=orthogonalEdgeStyle;rounded=0;orthogonalLoop=1;jettySize=auto;html=1;exitX=0.5;exitY=1;exitDx=0;exitDy=0;curved=1;" parent="WIyWlLk6GJQsqaUBKTNV-1" source="VzRjQSMVrOHmQdl7SLVF-28" target="VzRjQSMVrOHmQdl7SLVF-30" edge="1">
          <mxGeometry relative="1" as="geometry" />
        </mxCell>
        <mxCell id="5N6ZWTq1YRqtfyxgJyt1-2" style="edgeStyle=orthogonalEdgeStyle;rounded=0;orthogonalLoop=1;jettySize=auto;html=1;exitX=1;exitY=0.5;exitDx=0;exitDy=0;entryX=0.5;entryY=1;entryDx=0;entryDy=0;curved=1;" edge="1" parent="WIyWlLk6GJQsqaUBKTNV-1" source="VzRjQSMVrOHmQdl7SLVF-28" target="VzRjQSMVrOHmQdl7SLVF-10">
          <mxGeometry relative="1" as="geometry" />
        </mxCell>
        <mxCell id="VzRjQSMVrOHmQdl7SLVF-28" value="排线，处理飞单" style="rounded=1;whiteSpace=wrap;html=1;fontSize=12;glass=0;strokeWidth=1;shadow=0;" parent="WIyWlLk6GJQsqaUBKTNV-1" vertex="1">
          <mxGeometry x="240" y="200" width="120" height="40" as="geometry" />
        </mxCell>
        <mxCell id="5N6ZWTq1YRqtfyxgJyt1-1" style="edgeStyle=orthogonalEdgeStyle;rounded=0;orthogonalLoop=1;jettySize=auto;html=1;exitX=0.5;exitY=1;exitDx=0;exitDy=0;entryX=0.5;entryY=1;entryDx=0;entryDy=0;curved=1;" edge="1" parent="WIyWlLk6GJQsqaUBKTNV-1" source="VzRjQSMVrOHmQdl7SLVF-30" target="VzRjQSMVrOHmQdl7SLVF-25">
          <mxGeometry relative="1" as="geometry">
            <Array as="points">
              <mxPoint x="300" y="490" />
              <mxPoint x="1320" y="490" />
            </Array>
          </mxGeometry>
        </mxCell>
        <mxCell id="VzRjQSMVrOHmQdl7SLVF-30" value="310995&lt;div&gt;Shortage&lt;/div&gt;" style="rounded=1;whiteSpace=wrap;html=1;fontSize=12;glass=0;strokeWidth=1;shadow=0;" parent="WIyWlLk6GJQsqaUBKTNV-1" vertex="1">
          <mxGeometry x="240" y="290" width="120" height="40" as="geometry" />
        </mxCell>
        <mxCell id="VzRjQSMVrOHmQdl7SLVF-41" value="&lt;p style=&quot;margin:0in;font-family:Calibri;font-size:11.0pt&quot;&gt;Wrong_addr_cfm_in_dispatch&lt;/p&gt;" style="text;html=1;align=center;verticalAlign=middle;resizable=0;points=[];autosize=1;strokeColor=none;fillColor=none;" parent="WIyWlLk6GJQsqaUBKTNV-1" vertex="1">
          <mxGeometry x="710" y="460" width="200" height="30" as="geometry" />
        </mxCell>
      </root>
    </mxGraphModel>
  </diagram>
</mxfile>
